<svg xmlns="http://www.w3.org/2000/svg" width="223.175" height="158.383" viewBox="0 0 223.175 158.383">
  <g id="phone" transform="translate(-366.039 -1281.995)">
    <g id="Group_33" data-name="Group 33" transform="translate(366.039 1317.992)">
      <g id="Group_32" data-name="Group 32">
        <path id="Path_83" data-name="Path 83" d="M212.408,129.707H10.767A10.779,10.779,0,0,0,0,140.474V241.326a10.779,10.779,0,0,0,10.767,10.767H212.408a10.779,10.779,0,0,0,10.767-10.767V140.474A10.778,10.778,0,0,0,212.408,129.707Zm3.568,111.619a3.57,3.57,0,0,1-3.568,3.568H10.767A3.57,3.57,0,0,1,7.2,241.326V140.474a3.57,3.57,0,0,1,3.568-3.568H212.408a3.57,3.57,0,0,1,3.568,3.568Z" transform="translate(0 -129.707)" fill="#fff"/>
      </g>
    </g>
    <g id="Group_35" data-name="Group 35" transform="translate(402.485 1317.992)">
      <g id="Group_34" data-name="Group 34">
        <path id="Path_84" data-name="Path 84" d="M230.652,129.707H72.72a3.6,3.6,0,0,0-3.6,3.6V248.494a3.6,3.6,0,0,0,3.6,3.6H230.652a3.6,3.6,0,0,0,3.6-3.6V133.306A3.6,3.6,0,0,0,230.652,129.707Zm-3.6,115.187H76.319V136.906H227.053Z" transform="translate(-69.12 -129.707)" fill="#fff"/>
      </g>
    </g>
    <g id="Group_37" data-name="Group 37" transform="translate(376.838 1368.386)">
      <g id="Group_36" data-name="Group 36" transform="translate(0 0)">
        <path id="Path_85" data-name="Path 85" d="M31.279,225.28a10.8,10.8,0,1,0,10.8,10.8A10.811,10.811,0,0,0,31.279,225.28Zm0,14.4a3.6,3.6,0,1,1,3.6-3.6A3.6,3.6,0,0,1,31.279,239.679Z" transform="translate(-20.48 -225.28)" fill="#fff"/>
      </g>
    </g>
    <g id="Group_39" data-name="Group 39" transform="translate(506.423 1281.995)">
      <g id="Group_38" data-name="Group 38">
        <path id="Path_86" data-name="Path 86" d="M269.84,61.44a3.6,3.6,0,0,0-3.6,3.6v21.6a3.6,3.6,0,1,0,7.2,0V65.04A3.6,3.6,0,0,0,269.84,61.44Z" transform="translate(-266.24 -61.44)" fill="#fff"/>
      </g>
    </g>
    <g id="Group_41" data-name="Group 41" transform="translate(474.027 1281.996)">
      <g id="Group_40" data-name="Group 40">
        <path id="Path_87" data-name="Path 87" d="M225.343,76.893l-14.4-14.4a3.6,3.6,0,0,0-5.09,5.09l14.4,14.4a3.6,3.6,0,0,0,5.09-5.09Z" transform="translate(-204.801 -61.44)" fill="#fff"/>
      </g>
    </g>
    <g id="Group_43" data-name="Group 43" transform="translate(524.422 1281.996)">
      <g id="Group_42" data-name="Group 42">
        <path id="Path_88" data-name="Path 88" d="M320.916,62.495a3.6,3.6,0,0,0-5.09,0l-14.4,14.4a3.6,3.6,0,1,0,5.089,5.09l14.4-14.4A3.6,3.6,0,0,0,320.916,62.495Z" transform="translate(-300.374 -61.44)" fill="#fff"/>
      </g>
    </g>
    <g id="Group_45" data-name="Group 45" transform="translate(414.057 1350.388)">
      <g id="Group_44" data-name="Group 44" transform="translate(0 0)">
        <path id="Path_89" data-name="Path 89" d="M155.7,233.123l-18.792-39.909a3.6,3.6,0,0,0-6.51,0L91.411,276a3.6,3.6,0,0,0,3.255,5.132h38.966a3.6,3.6,0,1,0,0-7.2H100.34l33.31-70.74,15.538,32.99a3.6,3.6,0,0,0,6.51-3.065Z" transform="translate(-91.067 -191.147)" fill="#fff"/>
      </g>
    </g>
    <g id="Group_47" data-name="Group 47" transform="translate(453.024 1371.986)">
      <g id="Group_46" data-name="Group 46" transform="translate(0 0)">
        <path id="Path_90" data-name="Path 90" d="M229.451,295.367l-28.815-61.193a3.6,3.6,0,0,0-6.51,0l-28.815,61.193a3.6,3.6,0,0,0,3.255,5.132H226.2a3.6,3.6,0,0,0,3.256-5.132ZM174.241,293.3l23.141-49.143L220.523,293.3Z" transform="translate(-164.967 -232.107)" fill="#fff"/>
      </g>
    </g>
    <g id="Group_49" data-name="Group 49" transform="translate(492.025 1335.99)">
      <g id="Group_48" data-name="Group 48">
        <path id="Path_91" data-name="Path 91" d="M262.331,163.84a23.4,23.4,0,1,0,23.4,23.4A23.424,23.424,0,0,0,262.331,163.84Zm0,39.6a16.2,16.2,0,1,1,16.2-16.2A16.216,16.216,0,0,1,262.331,203.435Z" transform="translate(-238.934 -163.84)" fill="#fff"/>
      </g>
    </g>
  </g>
</svg>
